<?xml version="1.0" standalone="no"?>
<!DOCTYPE svg PUBLIC "-//W3C//DTD SVG 20010904//EN"
 "http://www.w3.org/TR/2001/REC-SVG-20010904/DTD/svg10.dtd">
<svg version="1.0" xmlns="http://www.w3.org/2000/svg"
 width="512.000000pt" height="512.000000pt" viewBox="0 0 512.000000 512.000000"
 preserveAspectRatio="xMidYMid meet">
<metadata>
Created by potrace 1.11, written by Peter Selinger 2001-2013
</metadata>
<g transform="translate(0.000000,512.000000) scale(0.100000,-0.100000)"
fill="#000000" stroke="none">
<path d="M2 2781 l3 -1285 1340 -1 c737 0 1347 1 1356 3 14 3 17 22 16 136 0
111 3 138 18 164 31 52 92 67 145 35 47 -27 54 -53 54 -191 0 -70 3 -129 7
-132 6 -4 1716 -5 1740 -1 3 1 6 576 6 1279 l0 1278 -881 0 -882 0 1 -120 c1
-67 -3 -133 -8 -147 -20 -62 -92 -92 -148 -63 -52 27 -59 49 -62 195 l-2 134
-1353 1 -1352 0 2 -1285z m1303 936 c8 -16 271 -363 277 -365 4 -2 8 -9 8 -15
0 -7 13 -25 28 -42 15 -16 35 -42 45 -57 17 -28 17 -28 -5 -29 -121 -6 -382
-20 -459 -24 l-76 -5 0 269 0 270 31 3 c30 3 149 -1 151 -5z m2447 -26 c48 -1
63 -5 88 -28 44 -40 50 -99 16 -140 -15 -17 -39 -35 -54 -40 -45 -15 -581 -10
-619 6 -65 27 -80 122 -27 172 22 21 38 25 122 29 53 3 169 4 257 3 88 -1 186
-2 217 -2z m-851 -132 c16 -17 29 -36 30 -43 5 -59 2 -272 -3 -294 -19 -74
-118 -104 -172 -53 -33 31 -40 70 -38 218 2 168 20 201 115 202 31 1 45 -5 68
-30z m-2475 -363 c27 -31 98 -111 178 -200 19 -22 33 -43 30 -47 -2 -4 8 -6
23 -4 16 2 91 6 168 10 77 3 160 8 185 10 25 2 106 6 180 10 74 4 151 8 170
10 19 2 94 6 165 10 72 4 153 8 180 10 28 2 106 6 175 10 69 3 141 8 160 10
58 5 194 6 216 1 75 -16 148 -79 180 -153 20 -47 15 -154 -10 -201 -24 -47
-91 -109 -134 -124 -42 -14 -147 -16 -337 -4 -193 11 -239 14 -365 20 -63 3
-146 8 -185 11 -90 6 -334 21 -510 30 -49 3 -124 7 -166 10 l-77 6 -118 -135
c-66 -73 -128 -138 -139 -143 -25 -12 -64 3 -66 26 -1 9 -2 198 -3 421 -2 342
0 408 13 423 22 27 55 21 87 -17z m3910 -70 c25 -25 34 -43 34 -67 0 -45 -31
-94 -67 -106 -16 -5 -252 -9 -568 -8 -454 1 -544 3 -563 15 -28 18 -54 72 -50
103 5 33 35 76 61 87 12 5 269 9 570 9 l549 1 34 -34z m-1437 -147 c17 -17 31
-36 32 -42 1 -7 2 -73 3 -147 1 -153 -12 -198 -64 -220 -64 -26 -149 24 -151
88 -1 32 -1 263 0 277 1 14 43 61 61 68 8 3 32 6 52 6 28 1 44 -6 67 -30z
m1442 -397 c48 -54 34 -134 -30 -166 -21 -11 -139 -13 -571 -12 -512 1 -547 2
-572 19 -42 29 -57 91 -33 137 31 61 16 59 623 57 l554 -2 29 -33z m-1463
-166 c48 -25 56 -54 56 -205 0 -152 -9 -188 -53 -214 -55 -33 -129 -11 -152
44 -6 16 -11 88 -11 172 -1 127 1 147 18 170 34 47 91 60 142 33z m-1393 -52
c77 -4 152 -8 168 -8 15 -1 27 -3 27 -5 0 -2 -86 -118 -191 -258 l-190 -254
-88 2 -88 1 0 270 0 270 111 -6 c61 -3 174 -9 251 -12z m2826 -290 c64 -32 78
-112 30 -166 l-29 -33 -169 -3 c-162 -3 -169 -2 -203 20 -65 44 -64 135 2 176
26 17 50 19 186 19 110 0 165 -4 183 -13z m-748 -22 c55 -52 49 -135 -12 -166
-43 -23 -328 -23 -371 -1 -76 39 -73 156 5 185 11 4 95 7 187 6 159 -1 168 -2
191 -24z"/>
<path d="M4885 3322 c0 -166 -4 -302 -8 -302 -5 0 -5 -6 0 -12 11 -18 10
-1588 -1 -1588 -5 0 -4 -6 1 -12 5 -7 9 -35 8 -63 l0 -50 -2221 -3 -2221 -2 1
-118 1 -117 2335 0 2335 0 3 1283 c1 705 -1 1282 -5 1283 -5 0 -58 2 -118 2
l-111 2 1 -303z"/>
</g>
</svg>
